<svg id="Layer_2" data-name="Layer 2" xmlns="http://www.w3.org/2000/svg" width="92" height="25.957" viewBox="0 0 92 25.957">
  <defs>
    <style>
      .cls-1 {
        fill: #fff;
      }
    </style>
  </defs>
  <g id="Layer_2-2" data-name="Layer 2">
    <path id="Path_2" data-name="Path 2" class="cls-1" d="M490.656,149.162h-.037a10.61,10.61,0,0,1-3.217,2.011,11.3,11.3,0,0,1-9.561-.386,9.142,9.142,0,0,1-3.564-3.473A9.853,9.853,0,0,1,473,142.288a10.619,10.619,0,0,1,1.353-5.5,9.333,9.333,0,0,1,3.583-3.51,9.945,9.945,0,0,1,4.862-1.224,8.348,8.348,0,0,1,4.387,1.188,8.687,8.687,0,0,1,3.141,3.276,9.773,9.773,0,0,1,1.17,4.862l-.037,1.609h-14.7A6.153,6.153,0,0,0,478.9,147.1a6.9,6.9,0,0,0,4.588,1.517,6.245,6.245,0,0,0,3.254-.749,15.025,15.025,0,0,0,2.048-1.444Zm-7.86-13.637a6.955,6.955,0,0,0-3.766,1.005,5.045,5.045,0,0,0-2.12,3.455h10.751v-.256a4.2,4.2,0,0,0-.822-2.194,5.024,5.024,0,0,0-4.04-2.011Z" transform="translate(-451.663 -126.093)"/>
    <path id="Path_3" data-name="Path 3" class="cls-1" d="M945.681,133.274v19.194h-3.8v-2.961a8.992,8.992,0,0,1-2.6,2.267,7.427,7.427,0,0,1-3.984,1.06,7.986,7.986,0,0,1-4.405-1.279,9.036,9.036,0,0,1-3.163-3.547,11.158,11.158,0,0,1-1.17-5.191,10.774,10.774,0,0,1,1.206-5.173,8.88,8.88,0,0,1,3.327-3.51,9.271,9.271,0,0,1,4.827-1.263,6.922,6.922,0,0,1,3.528.877,8.307,8.307,0,0,1,2.431,2.048v-2.521Zm-9.505,16.086a5.5,5.5,0,0,0,3.071-.857,5.769,5.769,0,0,0,2.047-2.34,7.456,7.456,0,0,0,.731-3.345,7.258,7.258,0,0,0-.731-3.29,5.818,5.818,0,0,0-2.047-2.321,5.514,5.514,0,0,0-3.071-.859,5.447,5.447,0,0,0-3,.841,5.692,5.692,0,0,0-2.047,2.3,7.327,7.327,0,0,0-.732,3.327,7.46,7.46,0,0,0,.732,3.345,5.789,5.789,0,0,0,2.047,2.34A5.349,5.349,0,0,0,936.175,149.36Z" transform="translate(-884.763 -126.876)"/>
    <path id="Path_4" data-name="Path 4" class="cls-1" d="M18.94,14.983a6.327,6.327,0,0,0-1.7-2.106,7.386,7.386,0,0,0-2.253-1.227A5.562,5.562,0,0,0,17.42,9.525a5.807,5.807,0,0,0,.825-3.077,6,6,0,0,0-1.9-4.8A8.411,8.411,0,0,0,10.7,0H0V7.386L3.957,3.81h6.081A5.485,5.485,0,0,1,13.06,4.6a2.874,2.874,0,0,1,1.227,2.62,2.948,2.948,0,0,1-1.154,2.491,4.45,4.45,0,0,1-2.656.916H3.957L0,14.415v3.668l3.957-3.648h6.7a7.925,7.925,0,0,1,2.253.329,4.367,4.367,0,0,1,1.887,1.1,2.911,2.911,0,0,1,.767,2.161A3.283,3.283,0,0,1,14.249,20.9a5.761,5.761,0,0,1-3.4.932H3.957l-3.9,3.811H11.062a13.258,13.258,0,0,0,3-.348,8.135,8.135,0,0,0,2.748-1.191A6.205,6.205,0,0,0,18.828,21.8a7.91,7.91,0,0,0,.77-3.7A6.734,6.734,0,0,0,18.94,14.983Z"/>
    <path id="Path_5" data-name="Path 5" class="cls-1" d="M1409.068,132.908a6.191,6.191,0,0,1,3.827,1.085,5.957,5.957,0,0,1,2.06,2.962,8,8,0,0,1,1.509-1.858,8.85,8.85,0,0,1,2.318-1.564,6.556,6.556,0,0,1,2.833-.626,6.223,6.223,0,0,1,3.9,1.085,5.748,5.748,0,0,1,1.969,2.907,13.587,13.587,0,0,1,.57,4.066v11.59h-3.826V141.188a6.548,6.548,0,0,0-.812-3.459,3.291,3.291,0,0,0-3.052-1.327,4.831,4.831,0,0,0-3.514,1.343,4.375,4.375,0,0,0-1.38,3.256v11.553h-3.826V141.113a5.974,5.974,0,0,0-.883-3.383,3.241,3.241,0,0,0-2.907-1.325,4.982,4.982,0,0,0-2.5.626,4.735,4.735,0,0,0-1.729,1.637,4.2,4.2,0,0,0-.626,2.261v11.627h-3.827V133.239H1403v3.09a8.56,8.56,0,0,1,2.484-2.373A6.4,6.4,0,0,1,1409.068,132.908Z" transform="translate(-1336.054 -126.912)"/>
  </g>
</svg>
