<svg xmlns="http://www.w3.org/2000/svg" width="77" height="76" viewBox="0 0 77 76">
  <defs>
    <style>
      .cls-1 {
        fill: #fff;
      }

      .cls-2 {
        fill: #08154d;
      }
    </style>
  </defs>
  <g id="Group_76578" data-name="Group 76578" transform="translate(-2381.015 -279.684)">
    <rect id="Rectangle_7690" data-name="Rectangle 7690" class="cls-1" width="77" height="76" rx="30" transform="translate(2381.015 279.684)"/>
    <g id="Group_76351" data-name="Group 76351" transform="translate(-6261.168 -16806.816)">
      <circle id="Ellipse_842" data-name="Ellipse 842" class="cls-1" cx="21.5" cy="21.5" r="21.5" transform="translate(8659.191 17103.498)"/>
      <path id="Path_9123" data-name="Path 9123" class="cls-2" d="M36.808-3.276A18.209,18.209,0,0,0,18.6-21.484,18.209,18.209,0,0,0,.391-3.276,18.209,18.209,0,0,0,18.6,14.933,18.209,18.209,0,0,0,36.808-3.276ZM26.408-5.87a3.186,3.186,0,0,1-2.551,2.933c1.793.933,2.7,2.364,1.836,4.845-1.078,3.081-3.64,3.341-7.048,2.7l-.827,3.313-2-.5.816-3.269c-.529-.131-1.068-.271-1.592-.413l-.819,3.284-2-.5.827-3.32c-.467-.119-.941-.246-1.424-.368l-2.6-.648L10.023-.1S11.5.295,11.476.266a.727.727,0,0,0,.916-.475L13.7-5.447l.211.052a1.653,1.653,0,0,0-.208-.067L14.634-9.2a1.063,1.063,0,0,0-.931-1.162c.031-.021-1.451-.361-1.451-.361l.532-2.134,2.755.688,0,.01c.414.1.841.2,1.276.3l.819-3.281,2,.5-.8,3.217c.536.122,1.076.246,1.6.377l.8-3.2,2,.5L22.4-10.464C24.925-9.595,26.77-8.292,26.408-5.87ZM21.843.531c.645-2.587-3.7-3.256-5.052-3.594l-1.1,4.4C17.048,1.671,21.225,3.012,21.843.531Zm.618-6.437c.587-2.354-3.046-2.879-4.174-3.16l-.995,3.989C18.42-4.8,21.9-3.649,22.461-5.905Z" transform="translate(8662.239 17128.127)"/>
    </g>
  </g>
</svg>
