<svg xmlns="http://www.w3.org/2000/svg" xmlns:xlink="http://www.w3.org/1999/xlink" width="245.983" height="288.728" viewBox="0 0 245.983 288.728">
  <defs>
    <style>
      .cls-1 {
        fill: #b7c0eb;
      }

      .cls-2 {
        fill: url(#linear-gradient);
      }

      .cls-3 {
        fill: #fff;
      }

      .cls-4 {
        fill: url(#linear-gradient-2);
      }

      .cls-5 {
        fill: #081f43;
      }

      .cls-6 {
        fill: #0e1740;
      }

      .cls-7 {
        fill: url(#linear-gradient-3);
      }

      .cls-8 {
        fill: url(#linear-gradient-4);
      }

      .cls-9 {
        fill: url(#linear-gradient-5);
      }

      .cls-10 {
        fill: url(#linear-gradient-6);
      }

      .cls-11 {
        fill: url(#linear-gradient-7);
      }

      .cls-12 {
        fill: #08154b;
      }
    </style>
    <linearGradient id="linear-gradient" x1="0.833" y1="-47.722" x2="1.972" y2="-47.722" gradientUnits="objectBoundingBox">
      <stop offset="0" stop-color="#b7c0eb"/>
      <stop offset="0.021" stop-color="#cad1f1"/>
      <stop offset="0.049" stop-color="#dbe0f7"/>
      <stop offset="0.083" stop-color="#e7ebfb"/>
      <stop offset="0.129" stop-color="#eff2fd"/>
      <stop offset="0.245" stop-color="#f1f4fe"/>
      <stop offset="0.683" stop-color="#f6f8fe"/>
      <stop offset="1" stop-color="#fff"/>
    </linearGradient>
    <linearGradient id="linear-gradient-2" x1="1.615" y1="-5.829" x2="1.024" y2="-4.729" gradientUnits="objectBoundingBox">
      <stop offset="0" stop-color="#437fec"/>
      <stop offset="0.358" stop-color="#326cd4"/>
      <stop offset="1" stop-color="#184eae"/>
    </linearGradient>
    <linearGradient id="linear-gradient-3" x1="7.833" y1="-5.33" x2="7.833" y2="-6.468" gradientUnits="objectBoundingBox">
      <stop offset="0" stop-color="#b7c0eb"/>
      <stop offset="0.023" stop-color="#bdc5ed"/>
      <stop offset="0.102" stop-color="#ced4f3"/>
      <stop offset="0.199" stop-color="#dadff7"/>
      <stop offset="0.332" stop-color="#e2e5fa"/>
      <stop offset="0.665" stop-color="#e4e7fb"/>
      <stop offset="0.794" stop-color="#e9ecfb"/>
      <stop offset="0.964" stop-color="#fafafe"/>
      <stop offset="1" stop-color="#fff"/>
    </linearGradient>
    <linearGradient id="linear-gradient-4" x1="0.863" y1="-10.824" x2="2.001" y2="-10.824" gradientUnits="objectBoundingBox">
      <stop offset="0" stop-color="#3a52b8"/>
      <stop offset="0.544" stop-color="#46a5ec"/>
      <stop offset="1" stop-color="#437fec"/>
    </linearGradient>
    <linearGradient id="linear-gradient-5" x1="0.793" y1="-9.978" x2="1.931" y2="-9.978" gradientUnits="objectBoundingBox">
      <stop offset="0" stop-color="#1b339b"/>
      <stop offset="0.358" stop-color="#326cd4"/>
      <stop offset="1" stop-color="#3a52b8"/>
    </linearGradient>
    <linearGradient id="linear-gradient-6" x1="1.076" y1="-13.921" x2="2.181" y2="-12.765" xlink:href="#linear-gradient"/>
    <linearGradient id="linear-gradient-7" x1="10.886" y1="-5.241" x2="10.886" y2="-6.379" xlink:href="#linear-gradient-3"/>
  </defs>
  <g id="Group_14274" data-name="Group 14274" transform="translate(-1077.5 -2504)">
    <g id="Group_14187" data-name="Group 14187" transform="translate(15807.725 10427.5)">
      <g id="Group_14177" data-name="Group 14177" transform="translate(-14730.225 -7923.5)">
        <g id="Group_2441" data-name="Group 2441" transform="translate(0 0)">
          <path id="Path_4940" data-name="Path 4940" class="cls-1" d="M225.793,43.063c-.394-9.016-8.3-18.062-17.629-20.183L16.211.446C6.878-1.668-.38,3.94.015,12.959L7.082,173.983c.394,9.016,8.3,18.067,17.63,20.179L216.664,216.6c9.331,2.116,16.594-3.5,16.2-12.511Z" transform="translate(11.359 4.128) rotate(3)"/>
          <path id="Path_4941" data-name="Path 4941" class="cls-1" d="M598.871,324.021c-.31-9.221-6.159-19.106-14.147-23.7-2.845-1.636-133.017-76.494-145.37-83.594-3.9-2.239-8.6-5.343-13.07-2.748-3.089,1.789-6.617,3.133-8.076,6.625-.718,1.712-1.393,163.014-1.395,164.042-.018,6.256,2.682,12.478,6.415,17.406,3.238,4.277,7.245,6.752,11.714,9.321,12.953,7.447,123.048,70.763,137.291,78.952,4.813,2.768,12.235,8.524,17.615,4.8a64.83,64.83,0,0,0,6.952-4.7c1.76-1.909,1.624-5.131,1.629-6.888,0-.888.686-152.033.441-159.517C598.861,323.8,598.876,324.228,598.871,324.021Z" transform="translate(-411.379 -207.613)"/>
          <path id="Path_4942" data-name="Path 4942" class="cls-2" d="M15.968.441c-.131-.025-.254-.052-.382-.081-.253-.052-.507-.1-.761-.14s-.5-.076-.751-.106c-.017,0-.039-.005-.057-.005L13.973.1c-.217-.025-.431-.047-.647-.062-.254-.015-.5-.03-.76-.042H11.81c-.266.005-.531.017-.792.037-.219.013-.436.039-.652.066L10.279.11c-.025.005-.051.005-.076.008C9.919.155,9.637.2,9.361.253c-.216.042-.431.1-.642.147-.056.017-.111.024-.168.037-.037.013-.076.018-.115.029-.354.1-.7.2-1.034.323-.077.029-.141.064-.219.091-.158.064-.308.133-.465.2-.182.081-.372.147-.547.236s-.317.172-.473.258c-.076.039-.152.074-.222.12a11.321,11.321,0,0,0-1.154.766c-.079.059-.148.116-.222.175a11.694,11.694,0,0,0-1.06.943Q1.52,5.146,0,6.715a11.052,11.052,0,0,1,1.056-.947c.074-.057.148-.12.221-.175A11.379,11.379,0,0,1,2.424,4.83L2.665,4.7c.32-.18.659-.332,1-.482.158-.066.317-.143.48-.2a11.8,11.8,0,0,1,1.361-.445c.061-.017.118-.025.177-.04a13.34,13.34,0,0,1,1.555-.288.382.382,0,0,1,.086-.008,14.9,14.9,0,0,1,1.683-.1h.13a17.13,17.13,0,0,1,1.791.1.228.228,0,0,1,.045.007,17.642,17.642,0,0,1,1.951.334L204.877,26.013l3.042-3.137Z" transform="translate(14.867 0) rotate(3)"/>
          <g id="Group_2402" data-name="Group 2402" transform="translate(11.421 2.956) rotate(3)">
            <path id="Path_4943" data-name="Path 4943" class="cls-3" d="M208.164,22.88C217.493,25,225.4,34.049,225.793,43.065l7.068,161.026c.4,9.016-6.866,14.625-16.2,12.509L24.713,194.162C15.382,192.05,7.476,183,7.082,173.983L.015,12.953C-.38,3.938,6.878-1.67,16.211.447Z"/>
            <path id="Path_4944" data-name="Path 4944" class="cls-4" d="M219.341,214.7a16.417,16.417,0,0,1-3.59-.418l-.123-.022L23.738,191.83c-8.82-2.03-16.286-10.571-16.655-19.074L.014,11.73a11.183,11.183,0,0,1,2.9-8.461A11.275,11.275,0,0,1,11.185,0a16.216,16.216,0,0,1,3.592.418L14.9.44,206.792,22.866c8.817,2.035,16.284,10.577,16.655,19.073l7.067,161.031A10.646,10.646,0,0,1,219.341,214.7Z" transform="translate(1.174 1.175)"/>
            <path id="Path_4945" data-name="Path 4945" class="cls-5" d="M218.167,212.353a15.273,15.273,0,0,1-3.329-.389l-.125-.029L22.765,189.5c-8.312-1.946-15.336-9.978-15.686-17.967L.014,10.5a10.024,10.024,0,0,1,2.571-7.6A10.1,10.1,0,0,1,10.01,0a15.251,15.251,0,0,1,3.334.391l.12.027L205.414,22.851c8.31,1.949,15.334,9.983,15.685,17.966l7.063,161.031a9.473,9.473,0,0,1-10,10.5Z" transform="translate(2.348 2.347)"/>
            <path id="Path_4946" data-name="Path 4946" class="cls-6" d="M215.817,207.65a12.973,12.973,0,0,1-2.812-.327l-.244-.057L20.825,184.831c-7.289-1.769-13.444-8.807-13.748-15.756L.011,8.049A7.751,7.751,0,0,1,1.933,2.18,7.778,7.778,0,0,1,7.661,0a12.808,12.808,0,0,1,2.815.328l.244.056L202.654,22.819c7.291,1.772,13.444,8.812,13.748,15.749L223.469,199.6a7.143,7.143,0,0,1-7.651,8.049Z" transform="translate(4.698 4.699)"/>
          </g>
          <path id="Path_4947" data-name="Path 4947" class="cls-7" d="M27.738,182.567c.008-.2.015-.4.015-.6.007-.249,0-.5-.015-.748v-.01L20.673,20.186c-.01-.248-.029-.494-.051-.738s-.049-.5-.079-.743c-.008-.052-.02-.1-.025-.16s-.015-.088-.022-.138c-.024-.148-.044-.3-.072-.45-.044-.251-.093-.507-.148-.755-.024-.1-.049-.2-.072-.3-.015-.066-.032-.125-.046-.192-.024-.093-.045-.192-.072-.288-.071-.27-.152-.539-.234-.805-.039-.121-.083-.241-.12-.362-.023-.067-.049-.135-.069-.2-.032-.086-.057-.177-.091-.263-.111-.3-.224-.6-.347-.9-.037-.088-.079-.177-.118-.264s-.076-.173-.118-.263c-.062-.142-.121-.288-.19-.431-.152-.313-.31-.627-.472-.933-.018-.03-.032-.061-.049-.089l-.01-.022c-.227-.423-.467-.837-.723-1.243-.024-.039-.054-.076-.081-.118-.229-.362-.477-.716-.726-1.066-.1-.145-.2-.3-.3-.446a.464.464,0,0,1-.054-.062c-.076-.1-.152-.19-.229-.29-.266-.347-.544-.687-.831-1.019-.126-.153-.261-.295-.392-.441-.249-.273-.5-.549-.763-.809-.147-.15-.3-.3-.453-.453-.263-.249-.531-.492-.8-.736-.157-.138-.313-.278-.473-.414-.072-.062-.138-.126-.212-.185-.148-.123-.31-.229-.462-.35-.28-.219-.558-.433-.844-.642-.083-.057-.158-.121-.244-.182-.243-.168-.492-.325-.741-.483-.108-.074-.224-.155-.34-.224-.035-.022-.071-.045-.106-.072-.342-.2-.691-.406-1.041-.6-.078-.037-.155-.072-.232-.113s-.184-.1-.273-.143c-.14-.072-.278-.148-.418-.217-.292-.14-.581-.276-.878-.4-.035-.017-.076-.03-.115-.045-.064-.027-.128-.054-.192-.079C6.155.984,5.979.911,5.8.841c-.266-.1-.534-.2-.8-.285C4.949.534,4.9.521,4.843.5S4.727.468,4.67.45C4.513.4,4.363.35,4.206.307,3.952.227,3.693.16,3.433.093,3.3.064,3.172.032,3.042,0L0,3.137c.551.128,1.1.281,1.639.451l.157.049C2.308,3.809,2.818,4,3.32,4.2c.051.02.1.042.157.067.487.206.965.433,1.44.675.083.044.165.084.246.13q.708.366,1.385.79c.123.076.242.16.366.236.323.211.643.431.96.655.285.206.564.418.842.637.232.18.462.357.687.546.157.131.308.27.462.4.276.244.546.49.812.745.152.145.3.295.45.446.263.266.512.537.763.81.131.15.266.293.4.441.281.328.549.664.817,1.006.076.1.162.2.241.308.118.158.228.328.344.494.249.355.5.706.733,1.07.288.46.563.92.817,1.391a.7.7,0,0,0,.039.071c.243.46.465.918.676,1.39.037.081.078.168.113.254.2.47.387.947.552,1.427.03.066.049.133.073.2.158.485.3.972.426,1.466.013.059.03.115.045.182q.177.745.293,1.5c.007.042.015.093.02.138a16.267,16.267,0,0,1,.155,1.636L24.7,184.347c.018.46.015.91,0,1.351l0,.094c-.018.418-.062.824-.116,1.221-.007.059-.015.118-.022.174-.057.386-.131.76-.219,1.127-.017.081-.04.163-.064.244-.078.3-.167.6-.264.891-.027.083-.056.177-.088.256-.128.352-.27.694-.426,1.023a.352.352,0,0,0-.022.052c-.017.034-.037.064-.054.094a10.179,10.179,0,0,1-.566,1.024c-.143.224-.3.436-.451.647-.074.1-.136.209-.214.3-.241.307-.5.6-.761.878q1.521-1.572,3.042-3.138a10.83,10.83,0,0,0,.765-.876c.062-.084.118-.175.184-.261.152-.2.307-.409.448-.633a.17.17,0,0,1,.032-.057c.192-.3.364-.625.524-.945.027-.059.064-.108.094-.162l0-.014h0c.148-.312.285-.628.408-.957.017-.035.023-.079.042-.116.025-.081.051-.165.079-.243.057-.172.12-.34.172-.517.035-.128.064-.258.1-.394.018-.074.04-.155.059-.232s.039-.131.052-.2c.054-.253.1-.507.145-.768.01-.054.013-.108.024-.16s.013-.116.02-.17c.018-.145.039-.286.057-.433.025-.244.047-.5.061-.746v-.044C27.738,182.629,27.736,182.6,27.738,182.567Z" transform="translate(218.266 33.567) rotate(3)"/>
          <g id="Group_2419" data-name="Group 2419" transform="translate(30.012 76.31) rotate(3)">
            <path id="Path_4962" data-name="Path 4962" class="cls-8" d="M200.457,24.36l3.33,76.339c.264,6.022-4.568,9.757-10.8,8.344L15.092,89.8C8.862,88.382,3.6,82.361,3.337,76.335L0,0Z"/>
          </g>
          <g id="Group_2420" data-name="Group 2420" transform="translate(14.997 97.565) rotate(3)">
            <path id="Path_4963" data-name="Path 4963" class="cls-9" d="M215.843,27.852l3.526,80.821c.28,6.379-4.84,10.331-11.436,8.832L15.975,95.073c-6.6-1.5-12.169-7.874-12.451-14.251L0,0Z"/>
          </g>
          <g id="Group_2423" data-name="Group 2423" transform="translate(5.434 4.24)">
            <path id="Path_4964" data-name="Path 4964" class="cls-10" d="M434.42,214.241c-.148-.091-.3-.173-.445-.251-.192-.106-.382-.2-.571-.3-.138-.067-.278-.13-.414-.2l-.02-.008c-.044-.02-.088-.044-.133-.064-.185-.084-.372-.162-.559-.234s-.379-.148-.566-.214c-.03-.014-.061-.02-.094-.032s-.066-.02-.1-.032c-.125-.042-.246-.083-.371-.12-.194-.062-.386-.113-.578-.162q-.169-.04-.339-.076l-.019-.007c-.072-.013-.146-.032-.219-.049-.207-.037-.409-.067-.613-.1-.125-.017-.251-.022-.376-.039-.044,0-.089-.01-.131-.01s-.079-.012-.118-.015c-.222-.017-.443-.022-.664-.022-.1,0-.2.01-.3.013-.062.005-.125.007-.187.008-.078.007-.157.007-.234.015a6.17,6.17,0,0,0-.812.121h0c-.1.019-.19.052-.286.074-.236.056-.47.113-.7.19-.023.008-.044.022-.067.032a6.642,6.642,0,0,0-1.07.5l-4.922,2.862a6.6,6.6,0,0,1,1.09-.5,7.475,7.475,0,0,1,2.064-.423c.076-.007.15-.007.227-.01a8.619,8.619,0,0,1,1.08.02l.077.008a10.791,10.791,0,0,1,1.166.177c.068.015.13.029.2.046.376.084.755.19,1.142.318l.174.056c.414.147.837.313,1.265.509l.125.057c.455.212.915.448,1.378.718l148.618,85.462,4.924-2.859Z" transform="translate(-414.965 -212.317)"/>
            <path id="Path_4965" data-name="Path 4965" class="cls-11" d="M532.572,287.8c-.01-.222-.018-.45-.034-.676-.007-.106-.015-.211-.024-.312-.005-.049-.007-.094-.012-.143-.007-.077-.012-.152-.018-.229-.02-.231-.045-.453-.078-.684s-.061-.473-.1-.706l0-.013-.01-.066c-.034-.207-.069-.416-.109-.625-.046-.246-.094-.49-.148-.736-.02-.093-.042-.187-.064-.276l-.029-.126c-.027-.109-.052-.221-.078-.334-.061-.243-.126-.5-.2-.748-.054-.19-.113-.384-.17-.578a.31.31,0,0,1-.013-.051c-.013-.039-.022-.074-.034-.109-.074-.241-.148-.483-.232-.724s-.163-.478-.249-.716c-.017-.049-.039-.1-.054-.148q-.018-.04-.035-.086c-.056-.152-.111-.3-.17-.455-.088-.227-.18-.455-.273-.682-.074-.173-.148-.349-.226-.522l-.017-.042c-.015-.035-.03-.069-.047-.106-.1-.231-.2-.453-.308-.681-.115-.248-.236-.494-.36-.74-.017-.04-.04-.079-.059-.12s-.04-.079-.059-.116c-.1-.206-.209-.411-.317-.61-.14-.261-.29-.519-.435-.778-.057-.1-.113-.2-.172-.3-.029-.052-.057-.1-.086-.158-.136-.231-.285-.448-.426-.676-.168-.275-.335-.549-.512-.819-.041-.057-.074-.12-.113-.177-.288-.428-.584-.854-.888-1.267-.205-.278-.411-.546-.623-.815-.177-.226-.359-.45-.541-.67s-.359-.423-.541-.632-.362-.4-.547-.6c-.032-.035-.066-.069-.1-.1s-.037-.042-.057-.061c-.138-.15-.276-.295-.418-.441-.2-.192-.393-.392-.593-.581-.066-.066-.131-.125-.2-.187l-.093-.088c-.11-.1-.217-.2-.325-.3-.207-.184-.413-.366-.622-.544-.093-.076-.187-.148-.281-.226-.042-.037-.088-.076-.133-.109-.069-.057-.14-.118-.211-.172-.2-.163-.408-.322-.615-.467-.141-.11-.285-.207-.428-.3-.039-.027-.074-.057-.111-.079a.49.49,0,0,0-.071-.049c-.2-.138-.394-.27-.593-.392s-.392-.249-.593-.366c-.045-.027-.093-.054-.136-.078l-4.924,2.859q.718.414,1.413.894c.018.013.035.027.054.039.43.3.854.623,1.272.957.064.054.126.1.19.157.376.31.748.633,1.112.974l.216.2q.579.546,1.135,1.139l.1.1c.4.431.793.873,1.172,1.331l.007.008c.015.015.03.037.047.056a32.869,32.869,0,0,1,2.082,2.817c.232.354.453.716.674,1.076.12.2.248.389.362.586.083.145.163.29.244.44.236.414.468.836.686,1.262.025.052.052.1.076.152q.394.778.741,1.57c.029.066.057.135.088.2q.328.756.613,1.523c.022.057.044.109.064.165.2.539.377,1.08.542,1.617.017.062.035.126.054.189.153.517.295,1.039.414,1.555.012.047.022.093.032.138q.192.829.323,1.647l.01.054c.088.551.153,1.105.2,1.654,0,.034,0,.069.008.1.044.551.067,1.1.066,1.634l-.453,158.926c0,.529-.027,1.043-.074,1.536,0,.042-.007.083-.012.125-.044.456-.11.894-.19,1.316l-.032.157q-.129.619-.307,1.189c-.022.062-.04.118-.061.177a9.874,9.874,0,0,1-.4,1.019.919.919,0,0,0-.045.109,9.34,9.34,0,0,1-.568,1.024c-.024.034-.051.066-.074.1a8.27,8.27,0,0,1-.552.731c-.072.081-.148.16-.221.241q-.25.263-.515.5c-.079.066-.158.138-.241.206a6.468,6.468,0,0,1-.807.559q2.461-1.425,4.92-2.859a6.656,6.656,0,0,0,.812-.564c.079-.061.152-.13.229-.2.182-.163.36-.332.529-.512.073-.079.143-.153.211-.232a7.57,7.57,0,0,0,.563-.743c.022-.03.047-.062.067-.094a.2.2,0,0,0,.025-.039A8.762,8.762,0,0,0,531,453l.008-.025c.018-.037.032-.078.049-.113.1-.214.194-.428.28-.655.042-.118.076-.236.115-.355.024-.064.045-.131.066-.2s.044-.126.062-.194c.067-.232.133-.468.189-.713.018-.083.032-.167.049-.253.013-.062.027-.126.039-.189.015-.084.034-.162.049-.248.039-.217.072-.44.1-.67.013-.115.025-.236.035-.354.005-.061.013-.116.019-.18,0-.045.01-.091.014-.138.02-.219.03-.435.042-.657s.015-.45.018-.681v-.035l.45-158.922C532.581,288.215,532.577,288.006,532.572,287.8Z" transform="translate(-350.514 -176.805)"/>
            <g id="Group_2421" data-name="Group 2421" transform="translate(0 2.862)">
              <path id="Path_4966" data-name="Path 4966" class="cls-3" d="M579.962,301.4c7.746,4.469,14.021,15.334,14,24.232L593.5,484.558c-.025,8.894-6.339,12.5-14.083,8.027L430.8,407.121c-7.736-4.469-14.019-15.341-13.99-24.244l.448-158.914c.027-8.9,6.347-12.494,14.083-8.025Z" transform="translate(-416.813 -214.016)"/>
              <path id="Path_4967" data-name="Path 4967" class="cls-12" d="M585.208,492.774a11.71,11.71,0,0,1-5.674-1.754l-148.62-85.469c-7.4-4.27-13.4-14.666-13.372-23.171l.451-158.914c.014-5.379,2.53-8.719,6.563-8.719a11.667,11.667,0,0,1,5.672,1.755l148.62,85.464c7.4,4.27,13.4,14.662,13.375,23.164l-.451,158.921C591.759,489.43,589.243,492.774,585.208,492.774Z" transform="translate(-416.313 -213.516)"/>
            </g>
            <g id="Group_2422" data-name="Group 2422" transform="translate(4.131 8.159)">
              <path id="Path_4968" data-name="Path 4968" class="cls-5" d="M578.27,303.986c5.471,3.16,9.9,10.817,9.875,17.11l-.452,158.921c-.017,6.292-4.467,8.829-9.935,5.672l-148.62-85.466c-5.468-3.16-9.892-10.813-9.873-17.11l.45-158.919c.018-6.3,4.467-8.835,9.937-5.674Z" transform="translate(-419.265 -217.161)"/>
            </g>
          </g>
        </g>
      </g>
    </g>
  </g>
</svg>
